<?xml version="1.0" encoding="utf-8"?>
<!-- Generator: Adobe Illustrator 28.0.0, SVG Export Plug-In . SVG Version: 6.00 Build 0)  -->
<svg version="1.1" id="Layer_1" xmlns="http://www.w3.org/2000/svg" xmlns:xlink="http://www.w3.org/1999/xlink" x="0px" y="0px"
	 viewBox="0 0 446.8714905 138.9237976" style="enable-background:new 0 0 446.8714905 138.9237976;" xml:space="preserve">
<style type="text/css">
	.st0{fill:#FFFFFF;}
</style>
<g>
	<path class="st0" d="M89.8871994,52.0209999c-0.7862015-4.7759018-5.0650024-19.2817993-22.8531036-19.2817993
		c-20.1449966,0-26.5980949,18.3666992-26.5980949,36.0229988c0,17.6298981,6.4530983,36.0166016,26.5980949,36.0166016
		c14.4682999,0,20.4761047-9.5650024,23.0572052-21.8656998h40.5239029c0,26.4618988-24.8721085,54.5804901-62.4468079,54.5804901
		C25.4930992,137.4935913,0,107.5360947,0,68.7621994C0,28.8070984,27.8833046,0,68.168396,0
		c33.8726044,0,58.2368011,19.1190987,61.8706055,52.0209999H89.8871994z"/>
	<rect x="354.6800842" y="38.9764977" class="st0" width="36.3925972" height="95.397995"/>
	<rect x="410.4750977" y="3.1293898" class="st0" width="36.3964005" height="131.2451019"/>
	<polygon class="st0" points="354.6800842,35.4799995 354.6800842,3.1288998 392.6468811,3.1288998 	"/>
	<path class="st0" d="M277.176178,93.3700943c0.9883118,11.8950043,7.7940063,19.9897003,18.9307251,19.9897003
		c7.3594055,0,14.2479858-3.8514938,16.5986023-9.2665939h32.093811
		c-6.2920227,21.181694-27.6055298,33.0673981-47.9825134,33.0673981c-32.3632202,0-54.5546112-20.0262985-54.5546112-51.6665039
		c0-28.7777977,20.6738129-52.2318954,52.1181183-52.2318954c36.5010071,0,53.2792664,25.4110985,53.2792664,52.2318954
		c0,2.6572037-0.219696,5.3262024-0.8173828,7.8759995H277.176178z M312.7915039,74.0551987
		c0-9.3510971-6.7452087-16.9721985-16.3155212-16.9721985c-11.0516663,0-17.4227905,6.0570984-19.1200867,16.9721985H312.7915039z"
		/>
	<path class="st0" d="M173.4653015,46.9242973C180.2612,40.8392982,189.3125,36.5873909,202.4291992,36.5873909
		c17.9281921,0,33.902298,10.4741096,33.902298,32.3608055v65.4263h-36.398407V84.3754959
		c0-11.0362015-2.0175934-18.7421951-12.6796875-18.7421951c-6.0782013,0-13.7881012,4.1591949-13.7881012,18.8969955v49.8442001
		h-36.3999023V3.1293898h36.3999023V46.9242973z"/>
</g>
</svg>
